<svg width="24" height="24" viewBox="0 0 24 24" fill="none" xmlns="http://www.w3.org/2000/svg">
<path d="M13.6466 10.3456L9.34562 14.6466C8.79312 14.0941 8.45312 13.3376 8.45312 12.4961C8.45312 10.8131 9.81312 9.45312 11.4961 9.45312C12.3376 9.45312 13.0941 9.79312 13.6466 10.3456Z" stroke="#001D6E" stroke-linecap="round" stroke-linejoin="round"/>
<path d="M16.4439 7.20275C14.9564 6.08075 13.2564 5.46875 11.4969 5.46875C8.49643 5.46875 5.69993 7.23675 3.75344 10.2967C2.98844 11.4952 2.98844 13.5097 3.75344 14.7082C4.42494 15.7622 5.20693 16.6717 6.05693 17.4027" stroke="#001D6E" stroke-linecap="round" stroke-linejoin="round"/>
<path d="M8.45312 18.899C9.42212 19.307 10.4506 19.528 11.4961 19.528C14.4966 19.528 17.2931 17.76 19.2396 14.7001C20.0046 13.5016 20.0046 11.4871 19.2396 10.2886C18.9591 9.84656 18.6531 9.43006 18.3386 9.03906" stroke="#001D6E" stroke-linecap="round" stroke-linejoin="round"/>
<path d="M14.4829 13.0938C14.2619 14.2922 13.2844 15.2697 12.0859 15.4907" stroke="#001D6E" stroke-linecap="round" stroke-linejoin="round"/>
<path d="M9.34949 14.6484L3 20.9979" stroke="#001D6E" stroke-linecap="round" stroke-linejoin="round"/>
<path d="M19.9979 4L13.6484 10.3495" stroke="#001D6E" stroke-linecap="round" stroke-linejoin="round"/>
</svg>
