<svg width="24" height="24" viewBox="0 0 24 24" fill="none" xmlns="http://www.w3.org/2000/svg">
<path d="M15.1385 11.8974C15.1385 13.5474 13.8052 14.8807 12.1552 14.8807C10.5052 14.8807 9.17188 13.5474 9.17188 11.8974C9.17188 10.2474 10.5052 8.91406 12.1552 8.91406C13.8052 8.91406 15.1385 10.2474 15.1385 11.8974Z" stroke="#001D6E" stroke-linecap="round" stroke-linejoin="round"/>
<path d="M12.1542 18.7917C15.0958 18.7917 17.8375 17.0583 19.7458 14.0583C20.4958 12.8833 20.4958 10.9083 19.7458 9.73333C17.8375 6.73333 15.0958 5 12.1542 5C9.2125 5 6.47083 6.73333 4.5625 9.73333C3.8125 10.9083 3.8125 12.8833 4.5625 14.0583C6.47083 17.0583 9.2125 18.7917 12.1542 18.7917Z" stroke="#001D6E" stroke-linecap="round" stroke-linejoin="round"/>
</svg>
